<svg width="30" height="30" viewBox="0 0 30 30" fill="none" xmlns="http://www.w3.org/2000/svg">
<rect width="30" height="30" rx="15" fill="white" fill-opacity="0.15"/>
<path opacity="0.7" fill-rule="evenodd" clip-rule="evenodd" d="M11.2428 10.7572C10.8523 11.1477 10.8523 11.7809 11.2428 12.1714L14.0712 14.9998L11.2426 17.8284C10.8521 18.2189 10.8521 18.8521 11.2426 19.2426C11.6332 19.6332 12.2663 19.6332 12.6568 19.2426L15.4854 16.414L18.3139 19.2425C18.7044 19.633 19.3376 19.633 19.7281 19.2425C20.1186 18.852 20.1186 18.2188 19.7281 17.8283L16.8996 14.9998L19.7279 12.1716C20.1184 11.781 20.1184 11.1479 19.7279 10.7573C19.3374 10.3668 18.7042 10.3668 18.3137 10.7573L15.4854 13.5856L12.657 10.7572C12.2665 10.3667 11.6333 10.3667 11.2428 10.7572Z" fill="white"/>
</svg>
