<svg width="93" height="56" viewBox="0 0 93 56" fill="none" xmlns="http://www.w3.org/2000/svg">
<g id="Frame 11113341">
<g id="Group 153328">
<path id="Vector" fill-rule="evenodd" clip-rule="evenodd" d="M34.4672 5.88794C34.3938 6.05571 34.4672 6.25494 34.5197 6.40174C34.5826 6.58 34.6665 6.81068 34.7294 7.03088C34.8552 7.40837 35.002 7.81731 35.1278 8.21577L37.5396 15.4405H54.9249C55.0508 14.7799 55.4807 13.7208 55.7009 13.0497L57.9239 6.48562C58.1231 5.91939 58.0811 5.97182 57.9763 5.88794C57.6827 5.65725 57.2842 6.54854 56.7599 7.19865C55.6065 8.64569 53.7505 10.4702 51.538 10.1137C50.0386 9.87252 49.0424 8.76103 48.3818 7.84877C47.1969 6.23397 47.113 5.11199 46.5992 4.2207H45.8233C45.2571 6.73728 42.4469 11.6551 38.5881 9.71523C37.1096 8.97074 36.0296 7.78586 35.1488 6.43319C34.6455 5.66773 34.8342 5.75162 34.4672 5.88794Z" fill="#FE9B0E"/>
<path id="Vector_2" fill-rule="evenodd" clip-rule="evenodd" d="M39.8153 4.90071C39.6999 6.71474 39.4378 7.57457 39.0708 9.15792C40.8114 9.98629 42.6464 8.89578 43.0973 7.9206C42.6674 7.65846 42.0173 6.94543 41.6398 6.48406C41.1889 5.92831 40.8114 5.32014 40.3606 4.75391L39.8258 4.89022L39.8153 4.90071Z" fill="#FE9B0E"/>
<path id="Vector_3" fill-rule="evenodd" clip-rule="evenodd" d="M49.4517 8.02669C50.0703 8.80264 51.8739 10.1658 53.4782 9.13818C53.0168 7.78552 52.849 6.46432 52.7337 4.92291L52.115 4.76562C51.8739 5.34234 51.2552 6.05537 50.8882 6.52723L49.4621 8.02669H49.4517Z" fill="#FE9B0E"/>
<path id="Vector_4" fill-rule="evenodd" clip-rule="evenodd" d="M45.7919 0.84282C43.7367 1.51391 44.7853 4.44992 46.7671 3.82077C48.6231 3.23357 47.7947 0.192703 45.7919 0.84282Z" fill="#FE9B0E"/>
<path id="Vector_5" fill-rule="evenodd" clip-rule="evenodd" d="M58.1962 3.44364C56.6862 3.88404 57.3573 5.97071 58.7834 5.57225C60.1046 5.20525 59.6013 3.0347 58.1962 3.44364Z" fill="#FE9B0E"/>
<path id="Vector_6" fill-rule="evenodd" clip-rule="evenodd" d="M33.7548 3.465C32.2763 3.91588 32.9788 6.04449 34.4154 5.57263C35.6317 5.17417 35.1599 3.03508 33.7548 3.465Z" fill="#FE9B0E"/>
<path id="Vector_7" fill-rule="evenodd" clip-rule="evenodd" d="M39.5003 2.87833C38.4518 3.24534 38.997 4.90208 40.119 4.46168C41.0627 4.0842 40.6748 2.46939 39.5003 2.87833Z" fill="#FE9B0E"/>
<path id="Vector_8" fill-rule="evenodd" clip-rule="evenodd" d="M52.388 2.8876C51.3499 3.30703 51.8952 4.86941 53.0067 4.47095C53.9714 4.12492 53.4785 2.4472 52.388 2.8876Z" fill="#FE9B0E"/>
<path id="Vector_9" fill-rule="evenodd" clip-rule="evenodd" d="M19.8086 21.428C39.6057 15.3462 51.2868 13.9202 72.3107 21.6796C53.1742 11.8754 41.231 11.5923 19.8086 21.428Z" fill="#FE9B0E"/>
<path id="Vector_10" fill-rule="evenodd" clip-rule="evenodd" d="M77.6478 44.3594C78.5286 44.3594 79.1053 44.4119 79.4933 44.4328C80.07 44.4957 80.2063 44.7264 80.2378 45.0515C80.2378 45.1144 80.2483 45.1773 80.2483 45.3031C80.2588 45.429 80.3112 45.4919 80.3741 45.4919C80.437 45.4919 80.4999 45.4395 80.5104 45.2717C80.5104 45.0095 80.5943 43.919 80.5943 43.7932C80.5943 43.4891 80.6048 43.4262 80.4894 43.4262C80.4265 43.4262 80.3426 43.4472 80.1329 43.4891C79.9861 43.5101 79.7974 43.5415 79.4828 43.5415H74.6069C74.198 43.5415 73.5269 43.4891 73.3696 43.4576C73.2019 43.4367 73.1075 43.3842 73.0551 43.3842C72.9921 43.3842 72.9397 43.4577 72.9083 43.6149C72.8244 44.0973 72.73 44.653 72.6671 45.1668C72.6566 45.2927 72.6776 45.387 72.7615 45.387C72.8349 45.387 72.8768 45.3031 72.8978 45.2297C72.9292 45.1563 72.9607 45.0725 72.9817 44.9991C73.1075 44.5691 73.3172 44.4223 73.9149 44.3909C74.4497 44.3489 75.1522 44.3699 75.5716 44.3699V48.4279C75.5716 49.466 75.5716 50.2105 75.5192 50.6614C75.4877 50.9654 75.4143 51.1752 75.1627 51.2276C75.0264 51.2486 74.9215 51.2486 74.8062 51.259C74.6803 51.2695 74.586 51.3115 74.586 51.3849C74.586 51.4688 74.6594 51.5002 74.8481 51.5002C75.1732 51.5002 76.3476 51.4583 76.5049 51.4583C76.6622 51.4583 77.8051 51.5002 78.5601 51.5002C78.7593 51.5002 78.8222 51.4583 78.8222 51.4058C78.8222 51.3324 78.7698 51.2905 78.581 51.259C78.4028 51.2486 78.277 51.2381 78.1406 51.2066C77.8156 51.1542 77.7212 50.8816 77.7002 50.6194C77.6583 50.1685 77.6478 49.2353 77.6478 48.4279V44.3699V44.3594ZM62.3281 48.4174C62.3281 49.0046 62.3176 49.5918 62.3176 49.9903C62.2757 50.7348 62.2442 51.1437 61.8877 51.2066C61.7724 51.2276 61.6885 51.2276 61.5732 51.2381C61.3844 51.2381 61.353 51.301 61.353 51.3429C61.353 51.4163 61.4054 51.4792 61.6151 51.4792C62.2338 51.4792 62.758 51.4373 63.2719 51.4373C64.4253 51.4373 65.2117 51.5002 66.8475 51.5002C67.2564 51.5002 67.3403 51.4897 67.4242 51.2171C67.4766 51.0074 67.5815 50.158 67.5815 49.6967C67.5815 49.5604 67.571 49.4765 67.4871 49.4765C67.4137 49.4765 67.3613 49.5394 67.3403 49.6652C67.2459 50.158 67.1201 50.4097 66.816 50.525C66.5119 50.6404 66.082 50.6509 65.7989 50.6509C64.5616 50.6509 64.4253 50.4831 64.4148 49.7386C64.4043 49.3087 64.4148 48.8054 64.4148 48.4594V47.6939C64.4148 47.631 64.4253 47.61 64.4882 47.61C64.8237 47.61 65.6626 47.6205 65.9981 47.6415C66.5749 47.6834 66.6902 47.8721 66.7531 48.2077C66.7636 48.2811 66.7636 48.3545 66.7741 48.4174C66.7846 48.5432 66.837 48.5852 66.8999 48.5852C66.9733 48.5852 67.0048 48.5432 67.0048 48.3964C67.0048 48.2811 67.0153 47.7149 67.0257 47.4842C67.0362 47.0962 67.1096 46.6348 67.1096 46.509C67.1096 46.4461 67.0992 46.3727 67.0257 46.3727C66.9733 46.3727 66.9314 46.4146 66.879 46.509C66.7531 46.7187 66.6063 46.7502 65.9981 46.7816C65.5682 46.7921 64.8133 46.7921 64.4882 46.7921C64.4148 46.7921 64.4043 46.7711 64.4043 46.6977V44.4643C64.4043 44.3909 64.4253 44.3489 64.4882 44.3489C64.8237 44.3489 65.7255 44.3699 66.124 44.4014C66.6483 44.4538 66.7741 44.6006 66.837 44.8418C66.8789 44.9991 66.8789 45.0934 66.8999 45.2402C66.9104 45.3346 66.9628 45.387 67.0257 45.387C67.0992 45.387 67.1516 45.3031 67.1516 45.2193C67.183 44.5587 67.204 44.3385 67.2145 44.0763C67.2355 43.8351 67.2669 43.6988 67.2984 43.5625C67.3089 43.4996 67.2879 43.4472 67.225 43.4472C67.183 43.4472 67.1306 43.4576 67.0572 43.4891C66.8789 43.531 66.6483 43.5415 66.4385 43.5415C66.2708 43.5415 63.4606 43.552 63.2719 43.552C62.8105 43.552 62.2967 43.5206 61.6466 43.5206C61.4788 43.5206 61.4159 43.573 61.4159 43.6254C61.4159 43.6779 61.4368 43.7513 61.6046 43.7617C61.72 43.7722 61.8353 43.7722 61.9297 43.8037C62.1918 43.8456 62.2967 44.0239 62.3176 44.286C62.3386 44.6321 62.3491 44.8208 62.3491 46.5719V48.4279L62.3281 48.4174ZM50.6051 46.5614C50.6051 44.9152 50.6051 44.7579 50.626 44.4119C50.6365 44.0868 50.6785 43.8246 51.0769 43.7827C51.1608 43.7722 51.2762 43.7617 51.3496 43.7408C51.4964 43.7303 51.5488 43.6883 51.5488 43.6149C51.5488 43.5415 51.5278 43.4891 51.3181 43.4891C50.9406 43.4891 49.546 43.5206 49.4936 43.5206C49.4516 43.5206 48.2038 43.4891 47.7739 43.4891C47.5537 43.4891 47.4908 43.5415 47.4908 43.594C47.4908 43.6778 47.5852 43.7198 47.711 43.7303C47.8263 43.7408 47.9312 43.7513 48.1095 43.7722C48.424 43.8351 48.5079 44.0029 48.5184 44.2546C48.5499 44.6006 48.5499 44.8942 48.5499 46.5405V48.3964C48.5499 49.4345 48.5289 50.1371 48.4765 50.5775C48.4555 50.8816 48.4031 51.1332 48.0256 51.1856C47.9102 51.2066 47.8788 51.2066 47.7844 51.2171C47.6481 51.2276 47.5642 51.2695 47.5642 51.3429C47.5642 51.4268 47.6586 51.4583 47.7844 51.4583C48.1409 51.4583 49.4516 51.4163 49.4831 51.4163C49.5355 51.4163 50.8148 51.4583 51.5593 51.4583C51.7061 51.4583 51.769 51.3954 51.769 51.3324C51.769 51.28 51.7166 51.2276 51.5802 51.2171C51.4544 51.2066 51.2657 51.2066 51.1189 51.1856C50.7309 51.1332 50.647 50.8816 50.6156 50.6089C50.5736 50.1685 50.5736 49.1934 50.5736 48.386V47.5051C51.36 48.6586 52.4191 50.1266 53.0587 50.7557C53.6354 51.301 54.1597 51.4478 55.6277 51.4478H56.7287C56.8441 51.4478 56.9489 51.4268 56.9489 51.3324C56.9489 51.2381 56.8965 51.2171 56.7287 51.2066C56.519 51.1752 56.3722 51.1437 56.1835 51.0388C56.0052 50.9445 55.7431 50.7557 55.1664 50.158C54.3695 49.2982 52.6183 47.2115 52.2304 46.6034C52.5135 46.3098 53.6669 45.1249 54.1702 44.6635C54.6945 44.2021 55.051 43.8666 55.6382 43.7722C55.7641 43.7513 55.8479 43.7408 55.9947 43.7198C56.1206 43.7093 56.194 43.6569 56.194 43.594C56.194 43.5206 56.1415 43.4891 55.9528 43.4891C55.8165 43.4891 54.9986 43.5101 54.3275 43.5101C53.6564 43.5101 53.6564 43.4891 53.1531 43.4891C53.0168 43.4891 52.9644 43.5415 52.9644 43.594C52.9644 43.6674 53.0587 43.7093 53.1741 43.7198C53.4572 43.7617 53.4782 43.8351 53.4782 43.961C53.4782 44.1287 53.258 44.4119 52.9329 44.7684C51.9997 45.7855 51.2132 46.5719 50.5736 47.1591V46.5405L50.6051 46.5614ZM39.6475 51.6365C40.329 51.6365 41.084 51.5736 41.5139 51.4058C41.6817 51.3429 41.7761 51.2381 41.8075 51.0493C41.8914 50.5355 42.0382 49.6128 42.0382 49.4031C42.0382 49.2982 41.9963 49.2248 41.9229 49.2248C41.839 49.2248 41.797 49.2668 41.7551 49.4765C41.6817 49.8015 41.5349 50.0951 41.3986 50.2524C40.9687 50.7033 40.4444 50.7767 39.5846 50.7767C37.7181 50.7767 36.5856 49.2772 36.5856 47.1801C36.5856 46.0371 36.8897 45.0829 37.5398 44.5691C37.9278 44.2441 38.4731 44.0973 39.0498 44.0973C40.1088 44.0973 40.8533 44.3489 41.2308 44.7579C41.6083 45.1563 41.6188 45.5967 41.6293 45.8065C41.6398 45.9533 41.6817 46.0371 41.7656 46.0371C41.86 46.0371 41.8914 45.9428 41.9124 45.7855C41.9334 45.4814 41.9543 44.8627 41.9648 44.5167C41.9858 44.1602 42.0172 43.8561 42.0172 43.7722C42.0172 43.7093 42.0172 43.6359 41.8914 43.6254C41.5664 43.6254 41.3462 43.573 40.8324 43.4891C40.4234 43.4262 39.8782 43.3633 39.2805 43.3633C37.7181 43.3633 36.5961 43.6569 35.6314 44.4328C34.5199 45.3241 34.2578 46.6558 34.2578 47.3688C34.2578 48.5118 34.5619 49.5918 35.6419 50.4726C36.8163 51.4058 38.2424 51.6365 39.6475 51.6365ZM25.6909 48.4174C25.6909 49.466 25.6805 50.2 25.6175 50.6404C25.5966 50.9445 25.5022 51.1647 25.261 51.2171C25.1142 51.2381 25.0094 51.2381 24.915 51.2486C24.7892 51.2486 24.7262 51.3115 24.7262 51.3639C24.7262 51.4478 24.7997 51.4897 24.9884 51.4897C25.3239 51.4897 26.5927 51.4478 26.6137 51.4478C26.6766 51.4478 27.9349 51.4897 28.6899 51.4897C28.8786 51.4897 28.9205 51.4268 28.9205 51.3744C28.9205 51.3115 28.8681 51.2486 28.6899 51.2486C28.564 51.2381 28.3858 51.2381 28.239 51.1961C27.9139 51.1227 27.8405 50.934 27.8091 50.6718C27.7566 50.221 27.7461 49.2248 27.7461 48.4174V46.5614C27.7461 44.9152 27.7461 44.6635 27.7881 44.3175C27.8405 43.9505 27.9349 43.8456 28.2285 43.7827C28.3543 43.7617 28.3648 43.7617 28.4697 43.7408C28.5955 43.7303 28.6899 43.7093 28.6899 43.6149C28.6899 43.5415 28.6689 43.4891 28.4697 43.4891C28.0502 43.4891 26.6766 43.5206 26.6137 43.5206C26.5717 43.5206 25.4078 43.4891 24.9884 43.4891C24.7787 43.4891 24.7367 43.552 24.7367 43.6149C24.7367 43.6883 24.7996 43.7303 24.9464 43.7408C25.0933 43.7513 25.2086 43.7617 25.282 43.7827C25.5441 43.8246 25.6175 44.0134 25.649 44.2965C25.6909 44.6321 25.6909 44.9047 25.6909 46.5509V48.4069V48.4174ZM16.5264 44.3594C17.4072 44.3594 17.9944 44.4119 18.3824 44.4328C18.9591 44.4957 19.0954 44.7264 19.1269 45.0515C19.1269 45.1144 19.1373 45.1773 19.1373 45.3031C19.1478 45.429 19.2003 45.4919 19.2632 45.4919C19.3261 45.4919 19.3785 45.4395 19.389 45.2717C19.3995 45.0095 19.4729 43.919 19.4729 43.7932C19.4729 43.4891 19.4834 43.4262 19.3575 43.4262C19.3051 43.4262 19.2107 43.4472 19.001 43.4891C18.8542 43.5101 18.6655 43.5415 18.3404 43.5415H13.4646C13.0556 43.5415 12.374 43.4891 12.2272 43.4576C12.0595 43.4367 11.9651 43.3842 11.9022 43.3842C11.8393 43.3842 11.7868 43.4577 11.7554 43.6149C11.6715 44.0973 11.5666 44.653 11.5142 45.1668C11.5037 45.2927 11.5247 45.387 11.6086 45.387C11.682 45.387 11.7239 45.3031 11.7449 45.2297C11.7868 45.1563 11.8078 45.0725 11.8288 44.9991C11.9651 44.5691 12.1748 44.4223 12.7725 44.3909C13.3073 44.3489 14.0098 44.3699 14.4292 44.3699V48.4279C14.4292 49.466 14.4292 50.2105 14.3768 50.6614C14.3349 50.9654 14.272 51.1752 14.0203 51.2276C13.884 51.2486 13.7791 51.2486 13.6638 51.259C13.538 51.2695 13.4436 51.3115 13.4436 51.3849C13.4436 51.4688 13.517 51.5002 13.7057 51.5002C14.0308 51.5002 15.2052 51.4583 15.3625 51.4583C15.5198 51.4583 16.6732 51.5002 17.4177 51.5002C17.6169 51.5002 17.6798 51.4583 17.6798 51.4058C17.6798 51.3324 17.6274 51.2905 17.4282 51.259C17.2499 51.2486 17.1241 51.2381 16.9878 51.2066C16.6627 51.1542 16.5788 50.8816 16.5474 50.6194C16.5159 50.1685 16.4949 49.2353 16.4949 48.4279V44.3699L16.5264 44.3594Z" fill="#FE9B0E"/>
</g>
</g>
</svg>
